<?xml version="1.0" ?><!DOCTYPE svg  PUBLIC '-//W3C//DTD SVG 1.1//EN'  'http://www.w3.org/Graphics/SVG/1.1/DTD/svg11.dtd'><svg enable-background="new 0 0 24 24" height="24px" id="Layer_1" version="1.1" viewBox="0 0 24 24" width="24px" xml:space="preserve" xmlns="http://www.w3.org/2000/svg" xmlns:xlink="http://www.w3.org/1999/xlink"><path d="M13.7,17.4c0,0,0.6-0.6,0.3-1S13.1,16,13.1,16H10v-6c0-2.2,1.8-4,4-4s4,1.8,4,4v3c0,0.6,0.5,1,1.1,1h4c0.6,0,0.9-0.5,0.9-1  v-3c0-5.5-4.5-10-10-10C8.5,0,4,4.5,4,10v6H1.1c0,0-0.8-0.1-1,0.4s0.5,1.1,0.5,1.1L7.1,24L13.7,17.4z M6,12v-2c0-4.4,3.6-8,8-8  s8,3.6,8,8v2h-2v-2c0-3.3-2.7-6-6-6c-3.3,0-6,2.7-6,6v2v6h2.1l-3.1,3l-2.9-3H6V12z"/></svg>